<svg xmlns="http://www.w3.org/2000/svg" viewBox="0 0 48 48">
    <defs>
        <style>
            .a{
            fill:none;
            stroke:#fff;
            stroke-linecap:round;
            stroke-linejoin:round;
            }
            </style>
        </defs><path
     class="a"
     d="m 28,28 v 4 h 4 v 4 h 4 v 4 h 4 v -4 -4 h -4 v -4 z m 0,0 h -4 v -4 h -8 v -4 h 4 v -4 h 4 v 4 h 4 z M 16,40 v -4 h 4 v -8 h 4 v 4 h 4 v 4 h -4 v 4 z M 8,8 h 4 v 4 h 8 v 4 h -4 v 4 H 12 V 16 H 8 Z m 8,16 v 12 h -4 v 4 H 8 v -8 h 4 V 24 Z M 20,8 h 12 v 4 h -4 v 8 h -4 v -8 h -4 z m 20,0 v 16 h -4 v -4 h -4 v -4 h 4 V 8 Z m 0.5,-2.5 h -33 a 2,2 0 0 0 -2,2 v 33 a 2,2 0 0 0 2,2 h 33 a 2,2 0 0 0 2,-2 v -33 a 2,2 0 0 0 -2,-2 z" /></svg>
