<svg xmlns="http://www.w3.org/2000/svg" viewBox="0 0 48 48">
    <defs>
        <style>
            .a{
            fill:none;
            stroke:#fff;
            stroke-linecap:round;
            stroke-linejoin:round;
            }
            </style>
        </defs><path
     class="a"
     d="m 34.32474,21.5 c -0.3,0.4 -0.4,0.8 -0.4,1.6 v 0.5 m 1.183,6.410398 c 0.5,0.6 1.1,0.9 2,0.9 h 1.2 c 1.1,0 2,-0.9 2,-2 v 0 c 0,-1.1 -0.9,-2 -2,-2 h -1.3 c -1.1,0 -2,-0.9 -2,-2 v 0 c 0,-1.1 0.9,-2 2,-2 h 1.2 c 0.9,0 1.5,0.2 2,0.9 m -11.66639,-0.9 v 8 m 0,-4 h 2.600003 m -2.600003,-4 h 4.000003 m -4.000003,8 h 4.000003 m -5.183033,-8 -2,8 -2,-8 -2,8 -2,-8 m -6.48303,5.4 c 0,1.5 1.2,2.7 2.6,2.7 1.5,0 2.7,-1.2 2.7,-2.7 v -2.7 c 0,-1.5 -1.2,-2.7 -2.7,-2.7 -1.5,0 -2.6,1.2 -2.6,2.7 z m -5.18303,-5.4 v 8 h 4 M 13,19.5 H 7 v 2 H 3.552632 V 33 h 40.894736 l -4.74e-4,-11.5 h -3.447131 l 4.73e-4,-2 H 35 L 24,15 Z" /></svg>
