<svg xmlns="http://www.w3.org/2000/svg" viewBox="0 0 48 48">
    <defs>
        <style>
            .a{
            fill:none;
            stroke:#fff;
            stroke-linecap:round;
            stroke-linejoin:round;
            }
            </style>
        </defs><path
     class="a"
     d="m 36.65,8.08 h 2.705876 c 1.249585,0 1.88726,1.050985 0.93954,3.983651 M 11.349647,8.080047 H 8.6437713 c -1.2495848,0 -1.8872606,1.050985 -0.9395404,3.983651 M 32.5,35 v 4.5 m -3,-4.5 v 4.5 M 18.5,35 v 4.5 m -3,-4.5 v 4.5 m 2.127484,-19.736928 a 3.5,3.5 0 0 1 -3.449615,2.908261 3.5,3.5 0 0 1 -3.487214,-3.201105 m 30.583661,1.353518 A 20,20 0 0 1 33,22.615624 20,20 0 0 1 24.725684,20.823746 M 23.955133,17.823665 A 20,20 0 0 1 15,19.940555 20,20 0 0 1 6.0448675,17.823665 M 21.32493,23.778397 24,26.750697 l 2.675069,-2.9723 M 39,23.949035 v 7.403596 C 39,34.48127 36.48127,37 33.352631,37 H 14.647369 C 11.51873,37 9,34.48127 9,31.352631 l 3e-7,-7.403596 M 9.6036669,10.096455 C 10.532427,8.256284 12.437795,7 14.647369,7 v 0 h 18.705262 c 2.18868,0 4.07888,1.2326373 5.017093,3.04441 M 42,17.26906 a 9,9 0 0 1 -9,9 9,9 0 0 1 -9.000001,-9 A 9,9 0 0 1 33,8.2690601 9,9 0 0 1 42,17.26906 Z m -18,0 a 9,9 0 0 1 -9,9 9,9 0 0 1 -8.9999995,-9 A 9,9 0 0 1 15,8.2690601 9,9 0 0 1 24,17.26906 Z M 8,41 h 32 m 0.405001,-7.571045 A 9,9 0 0 0 41.333951,20.769 M 7.5949429,33.428737 A 9,9 0 0 1 6.6659931,20.768783" /></svg>
