<svg xmlns="http://www.w3.org/2000/svg" viewBox="0 0 48 48">
    <defs>
        <style>
            .a{
            fill:none;
            stroke:#fff;
            stroke-linecap:round;
            stroke-linejoin:round;
            }
            </style>
        </defs><path
     class="a"
     d="m 35.697456,29.073969 c 1.350279,-0.0073 2.640681,0.451385 3.909042,1.755841 V 16.875489 L 37.698147,15.21206 m -2.000691,17.096354 c 0.742031,0.270052 1.289663,0.208143 2.339268,1.478603 l 5.448035,-4.096964 V 15.674123 L 39.945075,12.5937 34.096904,18.692939 m 1.600552,-5.051896 V 38.808109 L 34.096904,37.2987 30.49566,40.687168 v -8.440363 c -0.932494,0.292414 -1.803905,0.431602 -3.447344,1.909863 0.123695,-2.935904 1.800456,-4.316199 3.447344,-4.743853 v -6.499694 c -1.148557,0.0043 -1.877571,-0.239177 -2.800968,1.232169 -0.779882,-3.049747 0.630271,-3.945278 2.800968,-4.004551 v -3.665705 l -1.415874,-1.324583 m -0.954175,1.047344 3.324224,-3.573292 2.647069,2.556753 V 37.2987 M 14.986531,29.750508 11.641997,33.667953 7.0835214,29.849685 V 23.55202 C 5.5598871,23.57048 4.8368321,23.52445 4.6060887,24.766924 4.0986644,21.826341 5.2433332,20.532966 7.0835214,20.551953 V 14.923724 C 7.0924744,13.907177 5.7813239,12.9228 5.7704821,11.94845 5.7453707,9.6917191 8.4910633,8.1486658 10.700573,7.3119802 c 0,0 -1.8580744,0.7717403 -1.8580744,2.9504808 0,1.699376 2.1341214,1.859485 2.1305934,3.867858 v 14.107759 l 2.972919,2.702541 m -2.972919,-14.256524 3.840019,-4.091003 4.038216,3.942239 -0.148646,11.752335 3.468406,2.950479 0.123867,-13.884613 -2.105818,-2.107487 m -1.337809,1.289286 3.666599,-3.89265 3.468406,3.371977 0.09909,11.628365 -6.565197,6.099312 -4.533702,-3.991827 -0.02477,-12.04986 -2.502207,-2.380221"
     />
</svg>
